<svg xmlns="http://www.w3.org/2000/svg" xmlns:xlink="http://www.w3.org/1999/xlink" width="1080" zoomAndPan="magnify" viewBox="0 0 810 809.999993" height="1080" preserveAspectRatio="xMidYMid meet" version="1.0"><defs><g/></defs><rect x="-81" width="972" fill="#ffffff" y="-80.999999" height="971.999992" fill-opacity="1"/><rect x="-81" width="972" fill="#001b40" y="-80.999999" height="971.999992" fill-opacity="1"/><g fill="#ffffff" fill-opacity="1"><g transform="translate(144.564635, 632.144239)"><g><path d="M 429.671875 -162.8125 L 429.671875 -393.1875 C 429.671875 -414.351562 424.148438 -429.441406 413.109375 -438.453125 C 402.078125 -447.460938 384.398438 -451.96875 360.078125 -451.96875 L 360.078125 -464.125 L 511.40625 -464.125 L 511.40625 -451.96875 C 491.59375 -451.96875 476.957031 -446.5625 467.5 -435.75 C 458.039062 -424.9375 453.3125 -410.75 453.3125 -393.1875 L 453.3125 6.75 L 441.828125 6.75 L 99.3125 -379.671875 L 99.3125 -68.234375 C 99.3125 -47.066406 104.941406 -32.425781 116.203125 -24.3125 C 127.460938 -16.207031 144.800781 -12.15625 168.21875 -12.15625 L 172.953125 -12.15625 L 172.953125 0 L 10.140625 0 L 10.140625 -12.15625 C 53.828125 -12.15625 75.671875 -30.171875 75.671875 -66.203125 L 75.671875 -406.703125 C 72.960938 -409.398438 67.441406 -415.363281 59.109375 -424.59375 C 50.773438 -433.832031 42.78125 -440.585938 35.125 -444.859375 C 27.46875 -449.140625 19.140625 -451.507812 10.140625 -451.96875 L 10.140625 -464.125 L 164.171875 -464.125 Z M 429.671875 -162.8125 "/></g></g></g></svg>